<?xml version="1.0" encoding="UTF-8" standalone="no"?>
<!DOCTYPE svg PUBLIC "-//W3C//DTD SVG 1.1//EN" "http://www.w3.org/Graphics/SVG/1.1/DTD/svg11.dtd">
<svg version="1.1" xmlns="http://www.w3.org/2000/svg" xmlns:xlink="http://www.w3.org/1999/xlink" preserveAspectRatio="xMidYMid meet" viewBox="197.62068965517247 177.621 286.758620689655 286.75800000000004" width="282.76" height="282.76"><defs><path d="M334.18 461.26L328.41 460.91L322.71 460.33L317.08 459.53L311.52 458.5L306.04 457.27L300.64 455.82L295.33 454.17L290.11 452.31L284.99 450.26L279.97 448.02L275.05 445.59L270.24 442.98L265.55 440.18L260.98 437.22L256.53 434.09L252.2 430.79L248.01 427.33L243.96 423.72L240.05 419.95L236.28 416.04L232.67 411.99L229.21 407.8L225.91 403.47L222.78 399.02L219.82 394.45L217.02 389.76L214.41 384.95L211.98 380.03L209.74 375.01L207.69 369.89L205.83 364.67L204.18 359.36L202.73 353.96L201.5 348.48L200.47 342.92L199.67 337.29L199.09 331.59L198.74 325.82L198.62 320L198.74 314.18L199.09 308.41L199.67 302.71L200.47 297.08L201.5 291.52L202.73 286.04L204.18 280.64L205.83 275.33L207.69 270.11L209.74 264.99L211.98 259.97L214.41 255.05L217.02 250.24L219.82 245.55L222.78 240.98L225.91 236.53L229.21 232.2L232.67 228.01L236.28 223.96L240.05 220.05L243.96 216.28L248.01 212.67L252.2 209.21L256.53 205.91L260.98 202.78L265.55 199.82L270.24 197.02L275.05 194.41L279.97 191.98L284.99 189.74L290.11 187.69L295.33 185.83L300.64 184.18L306.04 182.73L311.52 181.5L317.08 180.47L322.71 179.67L328.41 179.09L334.18 178.74L340 178.62L340 461.38L334.18 461.26Z" id="b2Pn18yXG7"></path><path d="M351.59 179.09L357.29 179.67L362.92 180.47L368.48 181.5L373.96 182.73L379.36 184.18L384.67 185.83L389.89 187.69L395.01 189.74L400.03 191.98L404.95 194.41L409.76 197.02L414.45 199.82L419.02 202.78L423.47 205.91L427.8 209.21L431.99 212.67L436.04 216.28L439.95 220.05L443.72 223.96L447.33 228.01L450.79 232.2L454.09 236.53L457.22 240.98L460.18 245.55L462.98 250.24L465.59 255.05L468.02 259.97L470.26 264.99L472.31 270.11L474.17 275.33L475.82 280.64L477.27 286.04L478.5 291.52L479.53 297.08L480.33 302.71L480.91 308.41L481.26 314.18L481.38 320L481.26 325.82L480.91 331.59L480.33 337.29L479.53 342.92L478.5 348.48L477.27 353.96L475.82 359.36L474.17 364.67L472.31 369.89L470.26 375.01L468.02 380.03L465.59 384.95L462.98 389.76L460.18 394.45L457.22 399.02L454.09 403.47L450.79 407.8L447.33 411.99L443.72 416.04L439.95 419.95L436.04 423.72L431.99 427.33L427.8 430.79L423.47 434.09L419.02 437.22L414.45 440.18L409.76 442.98L404.95 445.59L400.03 448.02L395.01 450.26L389.89 452.31L384.67 454.17L379.36 455.82L373.96 457.27L368.48 458.5L362.92 459.53L357.29 460.33L351.59 460.91L345.82 461.26L340 461.38L340 178.62L345.82 178.74L351.59 179.09Z" id="b1FQjBDmO2"></path></defs><g><g><use xlink:href="#b2Pn18yXG7" opacity="1" fill="#ecb87a" fill-opacity="1"></use></g><g><use xlink:href="#b1FQjBDmO2" opacity="1" fill="#99bcc9" fill-opacity="1"></use></g></g></svg>